<svg width="479.9975344609526" height="95.9998801725912" xmlns="http://www.w3.org/2000/svg">
 <g>
  <title>background</title>
  <rect height="20.1128" width="92.5642" y="-1" x="-1" fill="none" id="canvas_background"/>
 </g>

 <g>
  <title>Layer 1</title>
  <path d="m33.138699,28.7402l0,-1.977501c0,-0.289398 0,-0.5306 0.048203,-0.675299s0.0965,-0.337601 0.192898,-0.4823s0.241199,-0.2411 0.482403,-0.337601c0.241096,-0.048201 0.530499,-0.0965 0.868198,-0.0965l1.977501,0l0,-4.003199l-3.183399,0c-1.832802,0 -3.183302,0.434099 -3.955002,1.302198c-0.819901,0.8682 -1.205799,2.1705 -1.205799,3.858601l0,2.4116l-2.4116,0l0,4.0033l2.4116,0l0,11.575699l4.774998,0l0,-11.575699l3.1833,0l0.434101,-4.0033l-3.617401,0z" fill="#ffffff" id="Layer" class="st0"/>
  <path d="m130.233994,20.885201c-3.57399,0 -4.049995,0 -5.479996,0.059599s-2.381996,0.2978 -3.215996,0.5956c-0.894005,0.357401 -1.608002,0.7743 -2.323006,1.548601c-0.714996,0.714699 -1.190994,1.488998 -1.548996,2.3228s-0.536003,1.7869 -0.595001,3.216299s-0.059998,1.846401 -0.059998,5.479601s0,4.050098 0.059998,5.479599s0.298004,2.382401 0.595001,3.216301c0.358002,0.893398 0.775002,1.608101 1.548996,2.3228c0.715004,0.714802 1.489006,1.1912 2.323006,1.548599c0.834,0.357399 1.786995,0.536102 3.215996,0.5956s1.846001,0.059601 5.479996,0.059601c3.573013,0 4.050003,0 5.479004,-0.059601s2.382996,-0.297798 3.216003,-0.5956c0.893997,-0.357399 1.608994,-0.7743 2.322998,-1.548599c0.714996,-0.714699 1.192001,-1.488998 1.548996,-2.3228c0.298004,-0.8339 0.536011,-1.7869 0.595001,-3.216301s0.059998,-1.846401 0.059998,-5.479599s0,-4.0501 -0.059998,-5.479601s-0.296997,-2.382399 -0.595001,-3.216299c-0.356995,-0.8934 -0.774002,-1.608101 -1.548996,-2.3228c-0.714005,-0.714701 -1.488998,-1.1912 -2.322998,-1.548601s-1.785995,-0.535999 -3.216003,-0.5956c-1.429001,-0.059599 -1.845993,-0.059599 -5.479004,-0.059599l0,0zm-1.191986,2.3825c0.357986,0 0.774994,0 1.191986,0c3.514008,0 3.990005,0 5.360001,0.0595c1.310013,0.059601 2.025009,0.2978 2.442001,0.4765c0.596008,0.238201 1.072006,0.5361 1.549011,1.012501s0.773987,0.893499 1.011993,1.548599c0.179001,0.4765 0.417007,1.1912 0.477005,2.442001c0.05899,1.3699 0.05899,1.846399 0.05899,5.3605s0,3.931 -0.05899,5.360397c-0.059998,1.310303 -0.298004,2.025101 -0.477005,2.442001c-0.238007,0.5956 -0.535995,1.072102 -1.011993,1.548599s-0.894012,0.7743 -1.549011,1.012501c-0.475998,0.178699 -1.190994,0.416901 -2.442001,0.476501c-1.369995,0.059597 -1.845993,0.059597 -5.360001,0.059597s-3.990997,0 -5.360992,-0.059597c-1.309998,-0.059601 -2.025002,-0.297802 -2.442001,-0.476501c-0.595001,-0.238201 -1.071999,-0.535999 -1.547997,-1.012501c-0.477005,-0.476498 -0.775002,-0.893398 -1.013,-1.548599c-0.178001,-0.476501 -0.417,-1.1912 -0.476006,-2.442001c-0.059998,-1.3699 -0.059998,-1.846397 -0.059998,-5.360397s0,-3.931101 0.059998,-5.3605c0.059006,-1.310301 0.298004,-2.025101 0.476006,-2.442001c0.237999,-0.5956 0.535995,-1.0721 1.013,-1.548599c0.475998,-0.4764 0.892998,-0.7743 1.547997,-1.012501c0.476997,-0.178699 1.192001,-0.416899 2.442001,-0.4765c1.250999,-0.0595 1.726997,-0.0595 4.169006,-0.0595l0,0zm8.278992,2.203699c-0.893005,0 -1.608002,0.714701 -1.608002,1.608101s0.714996,1.6082 1.608002,1.6082s1.608002,-0.7148 1.608002,-1.6082s-0.714005,-1.608101 -1.608002,-1.608101l0,0zm-7.087006,1.846401c-3.752991,0 -6.789993,3.0376 -6.789993,6.7899s3.037003,6.789898 6.789993,6.789898c3.751999,0 6.790009,-3.037598 6.790009,-6.789898s-3.03801,-6.7899 -6.790009,-6.7899l0,0zm0,2.382399c2.442001,0 4.407013,1.965502 4.407013,4.407501s-1.965012,4.407501 -4.407013,4.407501c-2.441994,0 -4.407997,-1.9655 -4.407997,-4.407501c0,-2.382401 1.966003,-4.407501 4.407997,-4.407501z" fill="#ffffff" id="svg_1" class="st0"/>
  <path d="m328.269135,36.075199c0.578003,0 1.057983,0.285702 1.475006,0.850903c0.412994,0.5695 0.630981,1.2635 0.630981,2.0952c0,0.8274 -0.217987,1.527798 -0.630981,2.090797c-0.415009,0.5695 -0.897003,0.851002 -1.475006,0.851002c-0.596008,0 -1.121002,-0.281502 -1.536011,-0.851002c-0.411987,-0.563 -0.631989,-1.263397 -0.631989,-2.090797c0,-0.831699 0.220001,-1.5257 0.631989,-2.0952c0.412994,-0.567303 0.937012,-0.850903 1.536011,-0.850903m7.393005,-7.647999c1.602997,1.742701 2.417999,3.8573 2.417999,6.345699c0,1.607399 -0.184998,3.0578 -0.557007,4.347301c-0.377014,1.282898 -0.847015,2.329399 -1.404999,3.135201c-0.567993,0.807999 -1.264008,1.514999 -2.093994,2.125298c-0.82901,0.614502 -1.591003,1.057201 -2.288025,1.338699c-0.697998,0.283703 -1.492981,0.500702 -2.388,0.6576c-0.894989,0.1525 -1.55899,0.238602 -2.026001,0.264301c-0.457001,0.019299 -0.940979,0.030098 -1.471985,0.030098c-0.118011,0 -0.522003,0.008602 -1.175995,0.032303c-0.645996,0.027798 -1.203003,0.034298 -1.636017,0.034298s-0.992004,-0.0065 -1.638,-0.034298c-0.652985,-0.023701 -1.057983,-0.032303 -1.175995,-0.032303c-0.527985,0 -1.014008,-0.010799 -1.471985,-0.030098c-0.468018,-0.0257 -1.130005,-0.111801 -2.026001,-0.264301c-0.908997,-0.154697 -1.688995,-0.373898 -2.388,-0.6576c-0.695007,-0.281498 -1.460999,-0.724197 -2.286011,-1.338699c-0.830994,-0.610298 -1.527985,-1.317299 -2.096008,-2.125298c-0.559998,-0.805801 -1.027985,-1.852303 -1.403992,-3.135201c-0.372009,-1.289501 -0.557007,-2.739902 -0.557007,-4.347301c0,-2.4884 0.813995,-4.605099 2.417023,-6.345699c-0.176025,-0.0881 -0.182007,-0.9606 -0.016022,-2.6152c0.134003,-1.6569 0.486023,-3.1847 1.063019,-4.5816c2.007996,0.2129 4.48999,1.3517 7.458984,3.397499c1.001007,-0.255798 2.365997,-0.3932 4.119995,-0.3932c1.830017,0 3.203003,0.137402 4.120026,0.3953c1.35199,-0.9133 2.643982,-1.656799 3.879974,-2.221899c1.255005,-0.5609 2.160004,-0.8939 2.72702,-0.9821l0.850983,-0.1933c0.57901,1.3946 0.932007,2.9224 1.065002,4.5814c0.162994,1.6525 0.157013,2.525 -0.018982,2.6131m-12.561005,16.804501c3.627991,0 6.347992,-0.434101 8.212006,-1.304401c1.836975,-0.868301 2.776001,-2.6604 2.776001,-5.363701c0,-1.568798 -0.587006,-2.879498 -1.766022,-3.9282c-0.597992,-0.565197 -1.316986,-0.9133 -2.126007,-1.044399c-0.804993,-0.1311 -2.038971,-0.1311 -3.694977,0c-1.653015,0.133202 -2.790009,0.193401 -3.401001,0.193401c-0.826019,0 -1.718994,-0.0387 -2.833008,-0.126801c-1.118011,-0.085999 -1.994995,-0.139599 -2.627991,-0.167599c-0.632996,-0.019402 -1.309998,0.057999 -2.059998,0.232098c-0.742004,0.176201 -1.351013,0.4813 -1.833008,0.9133c-1.119019,1.0079 -1.696991,2.3144 -1.696991,3.9282c0,2.7033 0.914978,4.495399 2.750977,5.363701c1.826019,0.8703 4.540009,1.304401 8.169006,1.304401l0.131012,0m-5.230011,-9.156502c0.575989,0 1.057007,0.285702 1.472992,0.850903c0.412018,0.5695 0.631012,1.2635 0.631012,2.0952c0,0.8274 -0.218994,1.527798 -0.631012,2.090797c-0.412994,0.5695 -0.897003,0.851002 -1.472992,0.851002c-0.600006,0 -1.121002,-0.281502 -1.537994,-0.851002c-0.412994,-0.563 -0.631989,-1.263397 -0.631989,-2.090797c0,-0.831699 0.218994,-1.5257 0.631989,-2.0952c0.414001,-0.567303 0.936005,-0.850903 1.537994,-0.850903" fill="#ffffff" id="svg_14"/>
  <polygon points="234.947,28.9628 234.947,26.3572 232.342,26.3572 232.342,28.9628 229.736,28.9628 229.736,31.5683 232.342,31.5683 232.342,34.1737 234.947,34.1737 234.947,31.5683 237.552,31.5683 237.552,28.9628 234.947,28.9628" fill="#ffffff" id="svg_15"/>
  <path d="m212.766006,29.073799l0,4.151302l6.565994,0a6.88387,6.88387 0 1 1 -1.673996,-6.967901l2.934998,-2.935501a11.1502,11.1502 0 1 0 3.041,5.7521l-10.867996,0z" fill="#ffffff" id="svg_16"/>
  <path d="m431.02478,23.659979c-1.136993,0.504499 -2.359009,0.845299 -3.641998,0.998499c1.30899,-0.7848 2.315002,-2.0275 2.787994,-3.5084c-1.225006,0.7267 -2.582001,1.254501 -4.027008,1.538801c-1.156006,-1.2325 -2.803986,-2.002491 -4.627991,-2.002491c-3.502991,0 -6.34201,2.83919 -6.34201,6.34129c0,0.497002 0.056,0.981001 0.164001,1.4452c-5.269989,-0.2645 -9.942993,-2.789099 -13.070984,-6.625799c-0.545013,0.9366 -0.858002,2.025801 -0.858002,3.188101c0,2.199999 1.118988,4.140999 2.820984,5.278299c-1.039978,-0.033001 -2.016998,-0.318201 -2.871979,-0.793301c-0.001007,0.0266 -0.001007,0.052999 -0.001007,0.079901c0,3.072399 2.186005,5.635311 5.087006,6.218109c-0.532013,0.144901 -1.09201,0.2225 -1.671021,0.2225c-0.40799,0 -0.806,-0.039898 -1.192993,-0.1138c0.807007,2.519211 3.149017,4.35281 5.924011,4.403912c-2.170013,1.700909 -4.904999,2.7146 -7.876007,2.7146c-0.510986,0 -1.015991,-0.029991 -1.511993,-0.088692c2.806,1.799301 6.139008,2.8493 9.720001,2.8493c11.664978,0 18.042999,-9.66301 18.042999,-18.04303c0,-0.275 -0.006012,-0.548399 -0.018005,-0.8204c1.239014,-0.894098 2.313995,-2.010899 3.164001,-3.282598z" fill-rule="evenodd" fill="#ffffff" clip-rule="evenodd" id="svg_2"/>
 </g>
</svg>