<svg width="96.00002335029658" height="96.00002335029658" xmlns="http://www.w3.org/2000/svg">

 <g>
  <title>background</title>
  <rect height="402" width="582" y="-1" x="-1" fill="none" id="canvas_background"/>
 </g>
 <g>
  <title>Layer 1</title>
  <circle r="9" cy="30.8" cx="24" fill="#6c8296" id="svg_2"/>
  <circle r="9" cy="30.8" cx="72" fill="#6c8296" id="svg_3"/>
  <path d="m66,74.199997l0,-9c0,-1.399998 -0.599998,-2.799995 -1.800003,-3.599998c-2.399998,-2 -5.599998,-3.399998 -8.799995,-4.199997c-2.200001,-0.600002 -4.800003,-1.200001 -7.400002,-1.200001c-2.400002,0 -5,0.399998 -7.400002,1.200001c-3.199997,0.799999 -6.199997,2.399998 -8.799999,4.199997c-1.199999,1 -1.799999,2.200001 -1.799999,3.599998l0,9l36,0z" id="svg_4"/>
  <circle r="9" cy="44.8" cx="48" fill="#6c8296" id="svg_5"/>
  <path d="m88.199997,47.599998c-2.399994,-2 -5.599998,-3.399998 -8.799995,-4.199997c-2.200005,-0.600002 -4.800003,-1.200001 -7.400002,-1.200001c-2.400002,0 -5,0.399998 -7.400002,1.200001c-1.199997,0.399998 -2.399998,0.799999 -3.599998,1.399998l0,0.200001c0,3.400002 -1.400002,6.599998 -3.599998,8.799999c3.799999,1.200001 6.799995,2.799999 9.199997,4.600002c0.599998,0.599998 1.200005,1 1.599998,1.799999l21.800003,0l0,-9c0,-1.400002 -0.599998,-2.799999 -1.800003,-3.600002z" id="svg_6"/>
  <path d="m29.4,58.400002l0,0c2.800001,-2 6.000002,-3.600002 9.199999,-4.600002c-2.199997,-2.399998 -3.599998,-5.399998 -3.599998,-8.799999c0,-0.200001 0,-0.200001 0,-0.400002c-1.200001,-0.399998 -2.400002,-1 -3.6,-1.199997c-2.199999,-0.600002 -4.799999,-1.200001 -7.4,-1.200001c-2.4,0 -5,0.399998 -7.4,1.200001c-3.200001,1 -6.200001,2.399998 -8.8,4.199997c-1.2,0.800003 -1.8,2.200001 -1.8,3.600002l0,9l21.6,0c0.6,-0.799999 1,-1.200001 1.799999,-1.799999z" id="svg_7"/>
 </g>
</svg>