<svg width="13839.001283884143" height="11676.001083216364" xmlns="http://www.w3.org/2000/svg">

 <g>
  <title>background</title>
  <rect height="402" width="582" y="-1" x="-1" fill="none" id="canvas_background"/>
 </g>
 <g>
  <title>Layer 1</title>
  <path d="m216,-25l6,0l13400,0c119,0 216,97 216,216l0,6l0,1718l0,6l0,6l0,9508c0,119 -97,216 -216,216l-6,0l-13400,0c-119,0 -216,-97 -216,-216l0,-6l0,-9503l0,-6l0,-6l0,-1724c0,-119 97,-216 216,-216l0,1zm9514,10810c-119,0 -216,-97 -216,-216c0,-119 97,-216 216,-216l2145,0c119,0 216,97 216,216c0,119 -97,216 -216,216l-2145,0zm865,-1081c-119,0 -216,-97 -216,-216c0,-119 97,-216 216,-216l2145,0c119,0 216,97 216,216c0,119 -97,216 -216,216l-2145,0zm-9514,-6703c-119,0 -216,-97 -216,-216c0,-119 97,-216 216,-216l2145,0c119,0 216,97 216,216c0,119 -97,216 -216,216l-2145,0zm865,1081c-119,0 -216,-97 -216,-216c0,-119 97,-216 216,-216l2145,0c119,0 216,97 216,216c0,119 -97,216 -216,216l-2145,0zm4987,-433c457,0 889,115 1268,316c350,186 655,447 892,762l85,-10c79,-8 156,-13 229,-13c601,0 1145,244 1538,637l13,14c386,393 625,931 625,1525c0,580 -228,1109 -600,1499c-364,383 -867,634 -1428,671c-16,4 -33,6 -50,6l-6,0l-92,0l-20,0l-2431,0l-22,0l-2889,0c-493,0 -940,-200 -1263,-523l-13,-14c-315,-322 -511,-763 -511,-1249c0,-493 200,-940 523,-1263c323,-323 770,-523 1263,-523c91,0 182,7 271,20l50,8c168,-513 484,-957 898,-1283c460,-362 1040,-578 1670,-578l0,-2zm1065,696c-316,-168 -679,-264 -1065,-264c-530,0 -1018,182 -1404,485c-392,309 -680,743 -802,1241l-6,26c-35,114 -157,177 -270,142c-64,-20 -131,-35 -200,-46c-66,-10 -136,-15 -206,-15c-374,0 -713,152 -957,397c-245,245 -397,584 -397,957c0,368 147,703 385,946l12,11c245,245 584,397 957,397l2889,0l22,0l2431,0l20,0l70,0l17,-2c462,-22 877,-226 1176,-540c297,-312 480,-736 480,-1202c0,-476 -191,-908 -500,-1223l-11,-10c-315,-315 -751,-511 -1232,-511c-65,0 -127,3 -184,9l-1,0c-57,6 -116,15 -174,28m-231,-89c-208,-309 -490,-564 -819,-739m-4754,-3507l432,0l0,433l-432,0l0,-433zm-1081,0l432,0l0,433l-432,0l0,-433zm-1081,0l432,0l0,433l-432,0l0,-433zm12325,1298l-12973,0l0,9081l12973,0l0,-9081zm-12973,-433l12973,0l0,-1297l-12973,0l0,1297z" fill-rule="nonzero" fill="#6c8296" id="svg_1" class="fil0"/>
 </g>
</svg>