<svg width="60.00003336996145" height="60.00003336996145" xmlns="http://www.w3.org/2000/svg">
 <title/>
 <desc/>

 <g>
  <title>background</title>
  <rect height="402" width="582" y="-1" x="-1" fill="none" id="canvas_background"/>
 </g>
 <g>
  <title>Layer 1</title>
  <path d="m38.676102,49.795834c-0.216801,-0.006302 -0.433002,-0.070702 -0.629002,-0.194302c-0.002102,0 -0.252998,-0.1619 -0.768002,-0.442497c-0.515697,-0.281403 -1.275398,-0.668701 -2.222099,-1.0751c-1.891201,-0.818604 -4.5387,-1.7248 -7.497499,-2.072502c-0.908501,-0.106098 -1.782801,-0.171101 -2.618999,-0.1987c-3.760201,-0.125801 -6.715601,0.443199 -7.920101,0.724602c-0.403099,0.093998 -0.588699,0.151199 -0.589399,0.151199c-0.6707,0.2001 -1.3728,-0.1922 -1.5701,-0.8736c-0.1954,-0.682899 0.1883,-1.398201 0.8583,-1.5975c0.0855,-0.024799 3.8979,-1.155003 9.301199,-0.9776c0.900801,0.031097 1.848202,0.099701 2.826801,0.214901c6.564798,0.781097 11.450998,3.915897 11.541399,3.963299c0.593601,0.378201 0.7729,1.172699 0.401699,1.7742c-0.245998,0.404301 -0.6777,0.6185 -1.114197,0.6036zm4.602699,-7.590801c-0.310001,0.502502 -0.848,0.772602 -1.3936,0.753502c-0.271099,-0.009201 -0.541401,-0.089802 -0.786102,-0.2453c-0.0014,0.002098 -0.056999,-0.036701 -0.206398,-0.125099c-0.150799,-0.089104 -0.377399,-0.219803 -0.6721,-0.380302c-0.593601,-0.3237 -1.463799,-0.769001 -2.554401,-1.239098c-2.175499,-0.9408 -5.220497,-1.9799 -8.622099,-2.378502c-1.041201,-0.122997 -2.0483,-0.195801 -3.011,-0.2276c-4.3267,-0.145699 -7.7276,0.508202 -9.110001,0.831902c-0.4615,0.108898 -0.670799,0.171101 -0.6721,0.173199c-0.8376,0.247402 -1.7175,-0.241798 -1.962199,-1.094898c-0.246,-0.853901 0.2343,-1.7481 1.0739,-1.994102c0.106299,-0.033199 4.5185,-1.340099 10.772599,-1.132298c1.042601,0.034599 2.1366,0.1124 3.270201,0.2467c7.606699,0.906097 13.261698,4.530197 13.3743,4.594498c0.7388,0.473598 0.964001,1.465302 0.499001,2.2174zm3.739399,-7.083397c-0.373299,0.603699 -1.021,0.925999 -1.673698,0.904099c-0.3232,-0.010601 -0.6492,-0.105999 -0.941803,-0.294102c0,0 -0.0681,-0.043797 -0.244698,-0.149097c-0.175102,-0.103199 -0.441299,-0.257999 -0.791599,-0.448799c-0.697903,-0.378201 -1.724503,-0.902 -3.008904,-1.457603c-2.564796,-1.107597 -6.151897,-2.334 -10.157497,-2.803999c-1.228901,-0.144199 -2.4167,-0.229101 -3.549702,-0.2658c-5.947498,-0.2022 -10.4098,0.878601 -11.345999,1.130899c-0.1335,0.0354 -0.1807,0.049501 -0.1807,0.049501c-1.0058,0.299002 -2.0595,-0.289101 -2.3542,-1.311201c-0.2947,-1.0235 0.280801,-2.0972 1.2887,-2.3962c0.1279,-0.035299 5.335199,-1.5791 12.716,-1.333099c1.2309,0.0403 2.520901,0.1308 3.8589,0.289101c8.981499,1.0709 15.649101,5.346601 15.784702,5.423601c0.887497,0.565498 1.156498,1.759399 0.600498,2.662701z" transform="rotate(1 30.0017 38.2566)" fill="#6c8296" id="svg_1"/>
 </g>
</svg>